:FULLY-SPECIFIED
:FORCE-ALL-JOINTS-BE-3DOF
:DEGREES
1053
root 1.20402 15.1589 32.5454 4.89718 -3.42732 363.472
lfemur 8.75061 0.490959 5.64996
ltibia 0.0511886 0 0
lfoot -30.3926 -11.2133 0
ltoes -34.1961 0 0
rfemur -31.1181 -15.7005 -6.30793
rtibia 50.0381 0 0
rfoot -21.8713 5.46271 0
rtoes -40.9729 0 0
lowerback -1.80589 -0.0543292 -0.238327
upperback -0.487008 -0.035878 -6.05018
thorax 0.509067 -0.0198703 -6.13788
lowerneck -6.98184 0.76518 6.56746
upperneck 1.25275 0.338061 3.64662
head 1.57933 0.293597 0.0466427
lclavicle -5.29112e-15 4.69383e-14 0
lhumerus -58.7088 -46.8349 115.395
lradius 55.8019 0 0
lwrist 25.5174 0 0
lhand 37.4131 25.3178 0
lfingers 7.12502 0 0
lthumb 60.2184 38.8667 0
rclavicle -5.29112e-15 4.69383e-14 0
rhumerus 2.19411 -23.5483 0.592774
rradius 27.4901 0 0
rwrist -9.75642 0 0
rhand -30.5298 -42.0797 0
rfingers 7.12502 0 0
rthumb -3.82903 -792.025 0
1054
root 1.20521 15.1592 32.548 4.89929 -3.43011 363.465
lfemur 8.73082 0.496051 5.64153
ltibia 0.11127 0 0
lfoot -30.4271 -11.1984 0
ltoes -34.1995 0 0
rfemur -31.103 -15.6886 -6.30842
rtibia 50.026 0 0
rfoot -21.8701 5.45941 0
rtoes -40.9679 0 0
lowerback -1.8126 -0.0552425 -0.243577
upperback -0.488185 -0.0368391 -6.0451
thorax 0.511538 -0.0203434 -6.12952
lowerneck -6.98552 0.764527 6.56131
upperneck 1.26155 0.336857 3.64904
head 1.58281 0.293372 0.0484123
lclavicle -4.73519e-15 4.60346e-14 0
lhumerus -58.7034 -46.8318 115.399
lradius 55.7983 0 0
lwrist 25.5182 0 0
lhand 37.4167 25.315 0
lfingers 7.12502 0 0
lthumb 60.2214 38.8607 0
rclavicle -4.73519e-15 4.60346e-14 0
rhumerus 2.19324 -23.5353 0.58991
rradius 27.4921 0 0
rwrist -9.74189 0 0
rhand -30.5358 -42.072 0
rfingers 7.12502 0 0
rthumb -3.83487 -792.018 0
1055
root 1.20679 15.1596 32.5514 4.90207 -3.4338 363.456
lfemur 8.7046 0.502797 5.63036
ltibia 0.190873 0 0
lfoot -30.4728 -11.1786 0
ltoes -34.2041 0 0
rfemur -31.083 -15.6728 -6.30906
rtibia 50.01 0 0
rfoot -21.8684 5.45503 0
rtoes -40.9612 0 0
lowerback -1.8215 -0.0564527 -0.250532
upperback -0.489743 -0.0381124 -6.03837
thorax 0.514812 -0.0209702 -6.11844
lowerneck -6.9904 0.763661 6.55316
upperneck 1.2732 0.335261 3.65225
head 1.58743 0.293074 0.0507568
lclavicle -3.99864e-15 4.48372e-14 0
lhumerus -58.6962 -46.8277 115.405
lradius 55.7936 0 0
lwrist 25.5192 0 0
lhand 37.4214 25.3114 0
lfingers 7.12502 0 0
lthumb 60.2254 38.8528 0
rclavicle -3.99864e-15 4.48372e-14 0
rhumerus 2.1921 -23.5181 0.586116
rradius 27.4946 0 0
rwrist -9.72263 0 0
rhand -30.5438 -42.0619 0
rfingers 7.12502 0 0
rthumb -3.84261 -792.007 0
1056
root 1.2087 15.16 32.5556 4.90545 -3.43828 363.445
lfemur 8.67281 0.510976 5.61682
ltibia 0.287394 0 0
lfoot -30.5282 -11.1546 0
ltoes -34.2096 0 0
rfemur -31.0588 -15.6537 -6.30984
rtibia 49.9906 0 0
rfoot -21.8664 5.44973 0
rtoes -40.9532 0 0
lowerback -1.83228 -0.05792 -0.258966
upperback -0.491633 -0.0396563 -6.03021
thorax 0.518782 -0.0217303 -6.105
lowerneck -6.99632 0.762612 6.54328
upperneck 1.28733 0.333326 3.65614
head 1.59302 0.292712 0.0535996
lclavicle -3.10555e-15 4.33853e-14 0
lhumerus -58.6875 -46.8227 115.412
lradius 55.7878 0 0
lwrist 25.5205 0 0
lhand 37.4271 25.3069 0
lfingers 7.12502 0 0
lthumb 60.2303 38.8431 0
rclavicle -3.10555e-15 4.33853e-14 0
rhumerus 2.19072 -23.4973 0.581516
rradius 27.4978 0 0
rwrist -9.69927 0 0
rhand -30.5535 -42.0496 0
rfingers 7.12502 0 0
rthumb -3.85199 -791.995 0
1057
root 1.21089 15.1605 32.5603 4.90933 -3.44343 363.432
lfemur 8.6363 0.520369 5.60127
ltibia 0.39823 0 0
lfoot -30.5918 -11.1271 0
ltoes -34.2159 0 0
rfemur -31.031 -15.6317 -6.31074
rtibia 49.9684 0 0
rfoot -21.8642 5.44364 0
rtoes -40.9439 0 0
lowerback -1.84466 -0.0596049 -0.268651
upperback -0.493803 -0.0414293 -6.02084
thorax 0.523341 -0.0226031 -6.08957
lowerneck -7.00312 0.761406 6.53194
upperneck 1.30356 0.331104 3.66061
head 1.59945 0.292297 0.0568641
lclavicle -2.08e-15 4.17181e-14 0
lhumerus -58.6776 -46.8171 115.42
lradius 55.7811 0 0
lwrist 25.522 0 0
lhand 37.4336 25.3019 0
lfingers 7.12502 0 0
lthumb 60.2358 38.8321 0
rclavicle -2.08e-15 4.17181e-14 0
rhumerus 2.18912 -23.4733 0.576233
rradius 27.5013 0 0
rwrist -9.67245 0 0
rhand -30.5647 -42.0355 0
rfingers 7.12502 0 0
rthumb -3.86276 -791.98 0
1058
root 1.21332 15.1611 32.5656 4.91362 -3.44912 363.418
lfemur 8.59594 0.530754 5.58408
ltibia 0.520779 0 0
lfoot -30.6622 -11.0967 0
ltoes -34.2229 0 0
rfemur -31.0002 -15.6073 -6.31173
rtibia 49.9437 0 0
rfoot -21.8616 5.4369 0
rtoes -40.9336 0 0
lowerback -1.85836 -0.0614679 -0.279359
upperback -0.496202 -0.0433896 -6.01048
thorax 0.528382 -0.0235681 -6.0725
lowerneck -7.01064 0.760073 6.5194
upperneck 1.3215 0.328648 3.66554
head 1.60655 0.291838 0.0604736
lclavicle -9.46074e-16 3.98747e-14 0
lhumerus -58.6666 -46.8108 115.429
lradius 55.7738 0 0
lwrist 25.5236 0 0
lhand 37.4408 25.2962 0
lfingers 7.12502 0 0
lthumb 60.242 38.8198 0
rclavicle -9.46074e-16 3.98747e-14 0
rhumerus 2.18737 -23.4469 0.570391
rradius 27.5053 0 0
rwrist -9.6428 0 0
rhand -30.577 -42.0199 0
rfingers 7.12502 0 0
rthumb -3.87466 -791.965 0
1059
root 1.21592 15.1617 32.5713 4.91823 -3.45523 363.403
lfemur 8.55257 0.541912 5.56561
ltibia 0.652438 0 0
lfoot -30.7377 -11.064 0
ltoes -34.2304 0 0
rfemur -30.9672 -15.5812 -6.3128
rtibia 49.9173 0 0
rfoot -21.8589 5.42967 0
rtoes -40.9226 0 0
lowerback -1.87307 -0.0634694 -0.290864
upperback -0.49878 -0.0454956 -5.99935
thorax 0.533798 -0.0246048 -6.05417
lowerneck -7.01871 0.758642 6.50592
upperneck 1.34078 0.326008 3.67085
head 1.61418 0.291345 0.0643513
lclavicle 2.72144e-16 3.78943e-14 0
lhumerus -58.6547 -46.804 115.439
lradius 55.7659 0 0
lwrist 25.5254 0 0
lhand 37.4486 25.2902 0
lfingers 7.12502 0 0
lthumb 60.2486 38.8067 0
rclavicle 2.72144e-16 3.78943e-14 0
rhumerus 2.18548 -23.4185 0.564116
rradius 27.5095 0 0
rwrist -9.61095 0 0
rhand -30.5902 -42.0031 0
rfingers 7.12502 0 0
rthumb -3.88746 -791.948 0
1060
root 1.21866 15.1623 32.5772 4.92307 -3.46165 363.387
lfemur 8.50707 0.553621 5.54622
ltibia 0.790604 0 0
lfoot -30.817 -11.0297 0
ltoes -34.2383 0 0
rfemur -30.9325 -15.5538 -6.31392
rtibia 49.8895 0 0
rfoot -21.856 5.42207 0
rtoes -40.9111 0 0
lowerback -1.8885 -0.0655699 -0.302937
upperback -0.501485 -0.0477057 -5.98767
thorax 0.539481 -0.0256928 -6.03494
lowerneck -7.02718 0.757139 6.49178
upperneck 1.36101 0.323239 3.67642
head 1.62219 0.290827 0.0684207
lclavicle 1.55057e-15 3.5816e-14 0
lhumerus -58.6423 -46.7969 115.449
lradius 55.7576 0 0
lwrist 25.5272 0 0
lhand 37.4568 25.2839 0
lfingers 7.12502 0 0
lthumb 60.2556 38.7929 0
rclavicle 1.55057e-15 3.5816e-14 0
rhumerus 2.18349 -23.3886 0.557531
rradius 27.514 0 0
rwrist -9.57752 0 0
rhand -30.6041 -41.9855 0
rfingers 7.12502 0 0
rthumb -3.90088 -791.93 0
1061
root 1.22147 15.1629 32.5834 4.92805 -3.46825 363.37
lfemur 8.46027 0.56566 5.52629
ltibia 0.932674 0 0
lfoot -30.8986 -10.9944 0
ltoes -34.2464 0 0
rfemur -30.8968 -15.5256 -6.31507
rtibia 49.861 0 0
rfoot -21.8531 5.41426 0
rtoes -40.8992 0 0
lowerback -1.90438 -0.0677296 -0.315351
upperback -0.504267 -0.0499782 -5.97566
thorax 0.545325 -0.0268116 -6.01516
lowerneck -7.03589 0.755594 6.47724
upperneck 1.38181 0.320391 3.68214
head 1.63043 0.290295 0.0726051
lclavicle 2.86512e-15 3.3679e-14 0
lhumerus -58.6295 -46.7896 115.459
lradius 55.7491 0 0
lwrist 25.5291 0 0
lhand 37.4652 25.2774 0
lfingers 7.12502 0 0
lthumb 60.2627 38.7788 0
rclavicle 2.86512e-15 3.3679e-14 0
rhumerus 2.18145 -23.358 0.550759
rradius 27.5185 0 0
rwrist -9.54314 0 0
rhand -30.6184 -41.9674 0
rfingers 7.12502 0 0
rthumb -3.91469 -791.911 0
1062
root 1.22431 15.1636 32.5895 4.93306 -3.4749 363.354
lfemur 8.41305 0.577811 5.50618
ltibia 1.07605 0 0
lfoot -30.9809 -10.9589 0
ltoes -34.2545 0 0
rfemur -30.8609 -15.4971 -6.31622
rtibia 49.8321 0 0
rfoot -21.8501 5.40639 0
rtoes -40.8872 0 0
lowerback -1.92039 -0.0699092 -0.327878
upperback -0.507074 -0.0522716 -5.96353
thorax 0.551222 -0.0279405 -5.99519
lowerneck -7.04469 0.754035 6.46256
upperneck 1.40279 0.317517 3.68792
head 1.63874 0.289758 0.0768279
lclavicle 4.19172e-15 3.15224e-14 0
lhumerus -58.6166 -46.7823 115.47
lradius 55.7405 0 0
lwrist 25.5311 0 0
lhand 37.4736 25.2708 0
lfingers 7.12502 0 0
lthumb 60.27 38.7644 0
rclavicle 4.19172e-15 3.15224e-14 0
rhumerus 2.1794 -23.327 0.543925
rradius 27.5232 0 0
rwrist -9.50845 0 0
rhand -30.6329 -41.9492 0
rfingers 7.12502 0 0
rthumb -3.92862 -791.893 0
